<?xml version="1.0" encoding="UTF-8" standalone="no"?>
<!-- Created with Inkscape (http://www.inkscape.org/) -->
<svg
   xmlns:dc="http://purl.org/dc/elements/1.1/"
   xmlns:cc="http://web.resource.org/cc/"
   xmlns:rdf="http://www.w3.org/1999/02/22-rdf-syntax-ns#"
   xmlns:svg="http://www.w3.org/2000/svg"
   xmlns="http://www.w3.org/2000/svg"
   xmlns:sodipodi="http://sodipodi.sourceforge.net/DTD/sodipodi-0.dtd"
   xmlns:inkscape="http://www.inkscape.org/namespaces/inkscape"
   width="559.27838"
   height="215.7594"
   id="svg2"
   sodipodi:version="0.32"
   inkscape:version="0.44"
   sodipodi:docbase="/home/midtiby/doc/2006-cand.scient./latex/exampleproject/doc/pic"
   sodipodi:docname="figur.svg"
   version="1.0"
   inkscape:export-filename="/home/midtiby/doc/2006-cand.scient./latex/exampleproject/doc/pic/figur.png"
   inkscape:export-xdpi="300"
   inkscape:export-ydpi="300">
  <defs
     id="defs4" />
  <sodipodi:namedview
     id="base"
     pagecolor="#ffffff"
     bordercolor="#666666"
     borderopacity="1.0"
     gridtolerance="10000"
     guidetolerance="10"
     objecttolerance="10"
     inkscape:pageopacity="0.0"
     inkscape:pageshadow="2"
     inkscape:zoom="1"
     inkscape:cx="180.95602"
     inkscape:cy="75.074494"
     inkscape:document-units="px"
     inkscape:current-layer="svg2"
     inkscape:window-width="917"
     inkscape:window-height="611"
     inkscape:window-x="0"
     inkscape:window-y="167"
     inkscape:showpageshadow="true"
     showborder="true"
     borderlayer="false" />
  <metadata
     id="metadata7">
    <rdf:RDF>
      <cc:Work
         rdf:about="">
        <dc:format>image/svg+xml</dc:format>
        <dc:type
           rdf:resource="http://purl.org/dc/dcmitype/StillImage" />
      </cc:Work>
    </rdf:RDF>
  </metadata>
  <g
     inkscape:label="Layer 1"
     id="layer1"
     inkscape:groupmode="layer"
     transform="translate(-86.72115,-164.3622)">
    <rect
       style="opacity:1;fill:#ff36ff;fill-opacity:1;stroke:none;stroke-width:1;stroke-linejoin:round;stroke-miterlimit:4;stroke-dasharray:none;stroke-dashoffset:0;stroke-opacity:1"
       id="rect2292"
       width="248"
       height="156"
       x="248"
       y="164.36218"
       inkscape:export-filename="/home/midtiby/doc/2006-cand.scient./latex/exampleproject/doc/pic/figur.png"
       inkscape:export-xdpi="300"
       inkscape:export-ydpi="300" />
    <rect
       style="opacity:0.8;fill:lime;fill-opacity:1;stroke:none;stroke-width:1;stroke-linejoin:round;stroke-miterlimit:4;stroke-dasharray:6, 6;stroke-dashoffset:0;stroke-opacity:1"
       y="287.42203"
       x="-21.152132"
       height="111.4286"
       width="222.85721"
       id="rect1872"
       inkscape:export-filename="/home/midtiby/doc/2006-cand.scient./latex/exampleproject/doc/pic/figur.png"
       inkscape:export-xdpi="300"
       inkscape:export-ydpi="300"
       transform="matrix(0.928997,-0.370088,0.370088,0.928997,0,0)" />
    <path
       style="opacity:0.6;fill:#364b7f;fill-opacity:1;stroke:none;stroke-width:1;stroke-linejoin:round;stroke-miterlimit:4;stroke-dasharray:6, 6;stroke-dashoffset:0;stroke-opacity:1"
       sodipodi:cx="400"
       sodipodi:cy="318.07648"
       sodipodi:type="arc"
       transform="matrix(0.919971,0.391987,-0.391987,0.919971,300.5509,-204.7681)"
       d="M 508.57143 318.07648 A 108.57143 54.285713 0 1 1  291.42857,318.07648 A 108.57143 54.285713 0 1 1  508.57143 318.07648 z"
       sodipodi:rx="108.57143"
       id="path1874"
       sodipodi:ry="54.285713"
       inkscape:export-filename="/home/midtiby/doc/2006-cand.scient./latex/exampleproject/doc/pic/figur.png"
       inkscape:export-xdpi="300"
       inkscape:export-ydpi="300" />
  </g>
  <g
     id="g2214"
     transform="matrix(2.824354,0.808636,-0.808636,2.824354,13.27631,16.8902)"
     texpreamble="header.inc"
     textext="En formel fra \\LaTeX. $\\sin(x)^2 + \\cos(x)^2 = 1$."
     inkscape:export-filename="/home/midtiby/doc/2006-cand.scient./latex/exampleproject/doc/pic/figur.png"
     inkscape:export-xdpi="300"
     inkscape:export-ydpi="300">
    <path
       id="path2216"
       d="M 6.16699,5.67499 L 5.918,5.67499 C 5.66899,7.20898 5.44,7.93695 3.726,7.93695 L 2.401,7.93695 C 1.933,7.93695 1.91299,7.867 1.91299,7.53796 L 1.91299,4.87799 L 2.81,4.87799 C 3.776,4.87799 3.886,5.19696 3.886,6.04401 L 4.13499,6.04401 L 4.13499,3.40399 L 3.886,3.40399 C 3.886,4.26001 3.776,4.56897 2.81,4.56897 L 1.91299,4.56897 L 1.91299,2.17798 C 1.91299,1.84998 1.933,1.77997 2.401,1.77997 L 3.686,1.77997 C 5.211,1.77997 5.48,2.328 5.63899,3.71295 L 5.888,3.71295 L 5.60899,1.47101 L 0,1.47101 L 0,1.77997 L 0.238998,1.77997 C 1.007,1.77997 1.026,1.88898 1.026,2.24799 L 1.026,7.46796 C 1.026,7.82697 1.007,7.93695 0.238998,7.93695 L 0,7.93695 L 0,8.24597 L 5.74899,8.24597 L 6.16699,5.67499 z M 7.55499,4.81799 L 7.55499,7.48798 C 7.55499,7.93695 7.44499,7.93695 6.778,7.93695 L 6.778,8.24597 C 7.127,8.23499 7.63499,8.216 7.90399,8.216 C 8.16299,8.216 8.681,8.23499 9.019,8.24597 L 9.019,7.93695 C 8.35201,7.93695 8.242,7.93695 8.242,7.48798 L 8.242,5.65497 C 8.242,4.61896 8.95,4.06097 9.58701,4.06097 C 10.215,4.06097 10.324,4.599 10.324,5.16699 L 10.324,7.48798 C 10.324,7.93695 10.215,7.93695 9.547,7.93695 L 9.547,8.24597 C 9.896,8.23499 10.404,8.216 10.673,8.216 C 10.932,8.216 11.45,8.23499 11.789,8.24597 L 11.789,7.93695 C 11.271,7.93695 11.022,7.93695 11.012,7.638 L 11.012,5.73499 C 11.012,4.87799 11.012,4.56897 10.703,4.211 C 10.564,4.04095 10.235,3.84198 9.657,3.84198 C 8.92999,3.84198 8.461,4.26996 8.183,4.888 L 8.183,3.84198 L 6.778,3.95197 L 6.778,4.26001 C 7.47499,4.26001 7.55499,4.32996 7.55499,4.81799 z "
       style="fill:black;fill-rule:evenodd;stroke:none" />
    <path
       id="path2218"
       d="M 17.075,4.26001 L 18.211,4.26001 L 18.211,3.95197 L 17.045,3.95197 L 17.045,2.79596 C 17.045,1.91901 17.523,1.44098 17.962,1.44098 C 17.991,1.44098 18.141,1.44098 18.29,1.51099 C 18.171,1.55096 17.991,1.67999 17.991,1.92896 C 17.991,2.15796 18.151,2.35797 18.42,2.35797 C 18.709,2.35797 18.858,2.15796 18.858,1.91901 C 18.858,1.55096 18.49,1.22198 17.962,1.22198 C 17.264,1.22198 16.417,1.75 16.417,2.80597 L 16.417,3.95197 L 15.63,3.95197 L 15.63,4.26001 L 16.417,4.26001 L 16.417,7.48798 C 16.417,7.93695 16.308,7.93695 15.64,7.93695 L 15.64,8.24597 C 16.029,8.23499 16.497,8.216 16.776,8.216 C 17.174,8.216 17.643,8.216 18.041,8.24597 L 18.041,7.93695 L 17.832,7.93695 C 17.095,7.93695 17.075,7.82697 17.075,7.46796 L 17.075,4.26001 z M 23.046,6.11298 C 23.046,4.83795 22.05,3.78198 20.845,3.78198 C 19.599,3.78198 18.633,4.86798 18.633,6.11298 C 18.633,7.39899 19.669,8.35498 20.835,8.35498 C 22.04,8.35498 23.046,7.37897 23.046,6.11298 z M 20.845,8.10596 C 20.416,8.10596 19.978,7.89697 19.709,7.43799 C 19.46,7 19.46,6.39197 19.46,6.034 C 19.46,5.64496 19.46,5.10699 19.699,4.66901 C 19.968,4.211 20.436,4.00098 20.835,4.00098 C 21.273,4.00098 21.701,4.22101 21.96,4.64899 C 22.219,5.07697 22.219,5.65497 22.219,6.034 C 22.219,6.39197 22.219,6.92999 22,7.36896 C 21.781,7.81696 21.343,8.10596 20.845,8.10596 z M 25.048,7.46796 L 25.048,5.93396 C 25.048,4.948 25.466,4.06097 26.223,4.06097 C 26.293,4.06097 26.313,4.06097 26.333,4.07098 C 26.303,4.08099 26.104,4.20099 26.104,4.45996 C 26.104,4.73895 26.313,4.888 26.532,4.888 C 26.711,4.888 26.96,4.76898 26.96,4.44995 C 26.96,4.13098 26.652,3.84198 26.223,3.84198 C 25.496,3.84198 25.137,4.50897 24.998,4.93799 L 24.998,3.84198 L 23.613,3.95197 L 23.613,4.26001 C 24.31,4.26001 24.39,4.32996 24.39,4.81799 L 24.39,7.48798 C 24.39,7.93695 24.28,7.93695 23.613,7.93695 L 23.613,8.24597 C 24.002,8.23499 24.47,8.216 24.749,8.216 C 25.147,8.216 25.615,8.216 26.014,8.24597 L 26.014,7.93695 L 25.805,7.93695 C 25.068,7.93695 25.048,7.82697 25.048,7.46796 z M 28.33,4.81799 L 28.33,7.48798 C 28.33,7.93695 28.22,7.93695 27.553,7.93695 L 27.553,8.24597 C 27.902,8.23499 28.41,8.216 28.679,8.216 C 28.938,8.216 29.456,8.23499 29.794,8.24597 L 29.794,7.93695 C 29.127,7.93695 29.017,7.93695 29.017,7.48798 L 29.017,5.65497 C 29.017,4.61896 29.725,4.06097 30.362,4.06097 C 30.99,4.06097 31.1,4.599 31.1,5.16699 L 31.1,7.48798 C 31.1,7.93695 30.99,7.93695 30.322,7.93695 L 30.322,8.24597 C 30.671,8.23499 31.179,8.216 31.448,8.216 C 31.707,8.216 32.225,8.23499 32.564,8.24597 L 32.564,7.93695 C 31.897,7.93695 31.787,7.93695 31.787,7.48798 L 31.787,5.65497 C 31.787,4.61896 32.494,4.06097 33.132,4.06097 C 33.76,4.06097 33.869,4.599 33.869,5.16699 L 33.869,7.48798 C 33.869,7.93695 33.76,7.93695 33.092,7.93695 L 33.092,8.24597 C 33.441,8.23499 33.949,8.216 34.218,8.216 C 34.477,8.216 34.995,8.23499 35.334,8.24597 L 35.334,7.93695 C 34.816,7.93695 34.566,7.93695 34.557,7.638 L 34.557,5.73499 C 34.557,4.87799 34.557,4.56897 34.248,4.211 C 34.108,4.04095 33.779,3.84198 33.202,3.84198 C 32.365,3.84198 31.926,4.44 31.757,4.81799 C 31.618,3.95197 30.88,3.84198 30.432,3.84198 C 29.705,3.84198 29.236,4.26996 28.958,4.888 L 28.958,3.84198 L 27.553,3.95197 L 27.553,4.26001 C 28.25,4.26001 28.33,4.32996 28.33,4.81799 z M 39.422,5.94397 C 39.641,5.94397 39.671,5.94397 39.671,5.73499 C 39.671,4.74896 39.133,3.78198 37.888,3.78198 C 36.732,3.78198 35.815,4.80798 35.815,6.05396 C 35.815,7.38898 36.862,8.35498 38.007,8.35498 C 39.223,8.35498 39.671,7.24896 39.671,7.06 C 39.671,6.95996 39.591,6.94 39.541,6.94 C 39.452,6.94 39.432,7 39.412,7.07996 C 39.063,8.10596 38.167,8.10596 38.067,8.10596 C 37.569,8.10596 37.17,7.80701 36.941,7.43799 C 36.642,6.95996 36.642,6.30298 36.642,5.94397 L 39.422,5.94397 z M 36.652,5.73499 C 36.712,4.25098 37.549,4.00098 37.888,4.00098 C 38.914,4.00098 39.013,5.34601 39.013,5.73499 L 36.652,5.73499 z M 41.725,1.33099 L 40.29,1.44098 L 40.29,1.75 C 40.988,1.75 41.067,1.82001 41.067,2.30798 L 41.067,7.48798 C 41.067,7.93695 40.958,7.93695 40.29,7.93695 L 40.29,8.24597 C 40.619,8.23499 41.147,8.216 41.396,8.216 C 41.645,8.216 42.133,8.23499 42.502,8.24597 L 42.502,7.93695 C 41.834,7.93695 41.725,7.93695 41.725,7.48798 L 41.725,1.33099 z "
       style="fill:black;fill-rule:evenodd;stroke:none" />
    <path
       id="path2220"
       d="M 47.832,4.26001 L 48.968,4.26001 L 48.968,3.95197 L 47.802,3.95197 L 47.802,2.79596 C 47.802,1.91901 48.281,1.44098 48.719,1.44098 C 48.749,1.44098 48.898,1.44098 49.048,1.51099 C 48.928,1.55096 48.749,1.67999 48.749,1.92896 C 48.749,2.15796 48.908,2.35797 49.177,2.35797 C 49.466,2.35797 49.616,2.15796 49.616,1.91901 C 49.616,1.55096 49.247,1.22198 48.719,1.22198 C 48.022,1.22198 47.175,1.75 47.175,2.80597 L 47.175,3.95197 L 46.388,3.95197 L 46.388,4.26001 L 47.175,4.26001 L 47.175,7.48798 C 47.175,7.93695 47.065,7.93695 46.398,7.93695 L 46.398,8.24597 C 46.786,8.23499 47.255,8.216 47.533,8.216 C 47.932,8.216 48.4,8.216 48.799,8.24597 L 48.799,7.93695 L 48.589,7.93695 C 47.852,7.93695 47.832,7.82697 47.832,7.46796 L 47.832,4.26001 z "
       style="fill:black;fill-rule:evenodd;stroke:none" />
    <path
       id="path2222"
       d="M 50.81,7.46796 L 50.81,5.93396 C 50.81,4.948 51.229,4.06097 51.986,4.06097 C 52.055,4.06097 52.075,4.06097 52.095,4.07098 C 52.065,4.08099 51.866,4.20099 51.866,4.45996 C 51.866,4.73895 52.075,4.888 52.295,4.888 C 52.474,4.888 52.723,4.76898 52.723,4.44995 C 52.723,4.13098 52.414,3.84198 51.986,3.84198 C 51.258,3.84198 50.9,4.50897 50.76,4.93799 L 50.76,3.84198 L 49.375,3.95197 L 49.375,4.26001 C 50.073,4.26001 50.153,4.32996 50.153,4.81799 L 50.153,7.48798 C 50.153,7.93695 50.043,7.93695 49.375,7.93695 L 49.375,8.24597 C 49.764,8.23499 50.232,8.216 50.511,8.216 C 50.91,8.216 51.378,8.216 51.776,8.24597 L 51.776,7.93695 L 51.567,7.93695 C 50.83,7.93695 50.81,7.82697 50.81,7.46796 z M 56.322,7.48798 C 56.361,7.88696 56.63,8.30499 57.099,8.30499 C 57.308,8.30499 57.916,8.16595 57.916,7.35901 L 57.916,6.80096 L 57.667,6.80096 L 57.667,7.35901 C 57.667,7.93695 57.417,7.99597 57.308,7.99597 C 56.979,7.99597 56.939,7.54797 56.939,7.49799 L 56.939,5.50598 C 56.939,5.08698 56.939,4.69897 56.581,4.32996 C 56.192,3.94196 55.694,3.78198 55.216,3.78198 C 54.399,3.78198 53.711,4.25098 53.711,4.90796 C 53.711,5.20697 53.911,5.37598 54.17,5.37598 C 54.449,5.37598 54.628,5.177 54.628,4.91797 C 54.628,4.79797 54.578,4.46997 54.12,4.45996 C 54.389,4.11096 54.877,4.00098 55.196,4.00098 C 55.684,4.00098 56.252,4.38995 56.252,5.27698 L 56.252,5.64496 C 55.744,5.67499 55.046,5.70496 54.419,6.00397 C 53.672,6.34296 53.422,6.86096 53.422,7.29901 C 53.422,8.10596 54.389,8.35498 55.016,8.35498 C 55.674,8.35498 56.132,7.95697 56.322,7.48798 z M 56.252,5.854 L 56.252,6.85095 C 56.252,7.797 55.535,8.13599 55.086,8.13599 C 54.598,8.13599 54.19,7.78699 54.19,7.289 C 54.19,6.74097 54.608,5.914 56.252,5.854 z "
       style="fill:black;fill-rule:evenodd;stroke:none" />
    <path
       id="path2224"
       d="M 67.097,5.67499 L 66.848,5.67499 C 66.739,6.69098 66.599,7.93695 64.846,7.93695 L 64.029,7.93695 C 63.561,7.93695 63.541,7.867 63.541,7.53796 L 63.541,2.22797 C 63.541,1.88898 63.541,1.75 64.487,1.75 L 64.816,1.75 L 64.816,1.44098 C 64.457,1.47101 63.551,1.47101 63.142,1.47101 C 62.754,1.47101 61.976,1.47101 61.628,1.44098 L 61.628,1.75 L 61.867,1.75 C 62.634,1.75 62.654,1.85901 62.654,2.21796 L 62.654,7.46796 C 62.654,7.82697 62.634,7.93695 61.867,7.93695 L 61.628,7.93695 L 61.628,8.24597 L 66.818,8.24597 L 67.097,5.67499 z "
       style="fill:black;fill-rule:evenodd;stroke:none" />
    <path
       id="path2226"
       d="M 67.07,1.38599 C 67.028,1.27399 67.007,1.22595 66.875,1.22595 C 66.742,1.22595 66.722,1.27399 66.68,1.38599 L 65.069,5.466 C 64.999,5.63995 64.88,5.94696 64.253,5.94696 L 64.253,6.198 C 64.49,6.177 64.734,6.16998 64.971,6.16998 C 65.25,6.16998 65.766,6.198 65.808,6.198 L 65.808,5.94696 C 65.501,5.94696 65.306,5.80701 65.306,5.612 C 65.306,5.55597 65.313,5.54199 65.341,5.47296 L 65.675,4.61499 L 67.656,4.61499 L 68.061,5.633 C 68.074,5.66797 68.095,5.71698 68.095,5.75195 C 68.095,5.94696 67.719,5.94696 67.531,5.94696 L 67.531,6.198 C 67.879,6.18396 68.326,6.16998 68.57,6.16998 C 68.897,6.16998 69.42,6.19098 69.497,6.198 L 69.497,5.94696 L 69.358,5.94696 C 68.89,5.94696 68.842,5.87695 68.765,5.68201 L 67.07,1.38599 z M 66.666,2.09698 L 67.558,4.36395 L 65.773,4.36395 L 66.666,2.09698 z "
       style="fill:black;fill-rule:evenodd;stroke:none" />
    <path
       id="path2228"
       d="M 74.962,1.50098 L 68.874,1.50098 L 68.685,3.742 L 68.934,3.742 C 69.074,2.138 69.223,1.81 70.727,1.81 C 70.907,1.81 71.166,1.81 71.265,1.82996 C 71.475,1.86896 71.475,1.979 71.475,2.20801 L 71.475,7.45801 C 71.475,7.797 71.475,7.93695 70.429,7.93695 L 70.03,7.93695 L 70.03,8.24597 C 70.439,8.216 71.455,8.216 71.913,8.216 C 72.371,8.216 73.397,8.216 73.806,8.24597 L 73.806,7.93695 L 73.407,7.93695 C 72.361,7.93695 72.361,7.797 72.361,7.45801 L 72.361,2.20801 C 72.361,2.00897 72.361,1.86896 72.541,1.82996 C 72.65,1.81 72.919,1.81 73.109,1.81 C 74.613,1.81 74.762,2.138 74.902,3.742 L 75.151,3.742 L 74.962,1.50098 z "
       style="fill:black;fill-rule:evenodd;stroke:none" />
    <path
       id="path2230"
       d="M 80.357,7.82001 L 80.108,7.82001 C 79.859,9.354 79.63,10.082 77.916,10.082 L 76.591,10.082 C 76.123,10.082 76.103,10.012 76.103,9.68298 L 76.103,7.02301 L 77,7.02301 C 77.966,7.02301 78.076,7.34198 78.076,8.18896 L 78.325,8.18896 L 78.325,5.54901 L 78.076,5.54901 C 78.076,6.40497 77.966,6.71399 77,6.71399 L 76.103,6.71399 L 76.103,4.323 C 76.103,3.995 76.123,3.92499 76.591,3.92499 L 77.876,3.92499 C 79.401,3.92499 79.67,4.47296 79.829,5.85797 L 80.078,5.85797 L 79.799,3.61597 L 74.19,3.61597 L 74.19,3.92499 L 74.429,3.92499 C 75.197,3.92499 75.216,4.034 75.216,4.39301 L 75.216,9.61298 C 75.216,9.97198 75.197,10.082 74.429,10.082 L 74.19,10.082 L 74.19,10.39 L 79.939,10.39 L 80.357,7.82001 z "
       style="fill:black;fill-rule:evenodd;stroke:none" />
    <path
       id="path2232"
       d="M 83.401,4.39996 L 84.766,2.39697 C 84.986,2.07898 85.324,1.76001 86.211,1.75 L 86.211,1.44098 C 85.822,1.45099 85.354,1.47101 85.105,1.47101 C 84.707,1.47101 84.228,1.47101 83.83,1.44098 L 83.83,1.75 C 84.228,1.76001 84.448,1.979 84.448,2.20801 C 84.448,2.30798 84.428,2.328 84.358,2.43695 L 83.222,4.12097 L 81.937,2.198 C 81.917,2.16797 81.867,2.08899 81.867,2.04901 C 81.867,1.92896 82.086,1.76001 82.515,1.75 L 82.515,1.44098 C 82.166,1.47101 81.439,1.47101 81.06,1.47101 C 80.751,1.47101 80.134,1.461 79.765,1.44098 L 79.765,1.75 L 79.954,1.75 C 80.502,1.75 80.692,1.82001 80.881,2.099 L 82.714,4.86798 L 81.08,7.27899 C 80.941,7.47797 80.642,7.93695 79.636,7.93695 L 79.636,8.24597 C 79.994,8.23499 80.413,8.216 80.741,8.216 C 81.11,8.216 81.658,8.216 82.017,8.24597 L 82.017,7.93695 C 81.558,7.927 81.389,7.65796 81.389,7.47797 C 81.389,7.38898 81.419,7.349 81.489,7.23895 L 82.903,5.14697 L 84.477,7.52795 C 84.497,7.56799 84.527,7.60797 84.527,7.638 C 84.527,7.75696 84.308,7.927 83.88,7.93695 L 83.88,8.24597 C 84.228,8.216 84.956,8.216 85.334,8.216 C 85.753,8.216 86.211,8.22595 86.629,8.24597 L 86.629,7.93695 L 86.44,7.93695 C 85.922,7.93695 85.713,7.88696 85.504,7.578 L 83.401,4.39996 z M 88.779,7.71698 C 88.779,7.42896 88.54,7.18896 88.251,7.18896 C 87.962,7.18896 87.723,7.42896 87.723,7.71698 C 87.723,8.00598 87.962,8.24597 88.251,8.24597 C 88.54,8.24597 88.779,8.00598 88.779,7.71698 z "
       style="fill:black;fill-rule:evenodd;stroke:none" />
    <path
       id="path2234"
       d="M 96.131,6.31299 C 96.35,6.35297 97.167,6.51196 97.167,7.229 C 97.167,7.737 96.819,8.13599 96.042,8.13599 C 95.205,8.13599 94.846,7.56799 94.657,6.72101 C 94.627,6.59198 94.617,6.552 94.517,6.552 C 94.388,6.552 94.388,6.62201 94.388,6.80096 L 94.388,8.11597 C 94.388,8.28497 94.388,8.35498 94.497,8.35498 C 94.547,8.35498 94.557,8.34497 94.746,8.15601 C 94.766,8.13599 94.766,8.11597 94.946,7.927 C 95.384,8.34497 95.832,8.35498 96.042,8.35498 C 97.187,8.35498 97.646,7.68799 97.646,6.96997 C 97.646,6.44196 97.347,6.14301 97.227,6.02399 C 96.898,5.70496 96.51,5.625 96.091,5.54596 C 95.533,5.43597 94.866,5.30701 94.866,4.729 C 94.866,4.38 95.125,3.97198 95.982,3.97198 C 97.078,3.97198 97.127,4.86798 97.147,5.177 C 97.157,5.26697 97.247,5.26697 97.267,5.26697 C 97.396,5.26697 97.396,5.21698 97.396,5.02795 L 97.396,4.021 C 97.396,3.85199 97.396,3.78198 97.287,3.78198 C 97.237,3.78198 97.217,3.78198 97.088,3.90198 C 97.058,3.94196 96.958,4.03101 96.918,4.06097 C 96.54,3.78198 96.131,3.78198 95.982,3.78198 C 94.766,3.78198 94.388,4.44995 94.388,5.008 C 94.388,5.35596 94.547,5.63501 94.816,5.854 C 95.135,6.11298 95.414,6.17297 96.131,6.31299 z "
       style="fill:black;fill-rule:evenodd;stroke:none" />
    <path
       id="path2236"
       d="M 99.76,3.84198 L 98.365,3.95197 L 98.365,4.26001 C 99.013,4.26001 99.102,4.32001 99.102,4.80798 L 99.102,7.48798 C 99.102,7.93695 98.993,7.93695 98.325,7.93695 L 98.325,8.24597 C 98.644,8.23499 99.182,8.216 99.421,8.216 C 99.77,8.216 100.119,8.23499 100.457,8.24597 L 100.457,7.93695 C 99.8,7.93695 99.76,7.88696 99.76,7.49799 L 99.76,3.84198 z M 99.8,2.10901 C 99.8,1.78998 99.551,1.58099 99.272,1.58099 C 98.963,1.58099 98.744,1.84998 98.744,2.10901 C 98.744,2.37799 98.963,2.63696 99.272,2.63696 C 99.551,2.63696 99.8,2.427 99.8,2.10901 z "
       style="fill:black;fill-rule:evenodd;stroke:none" />
    <path
       id="path2238"
       d="M 101.852,4.81799 L 101.852,7.48798 C 101.852,7.93695 101.743,7.93695 101.075,7.93695 L 101.075,8.24597 C 101.424,8.23499 101.932,8.216 102.201,8.216 C 102.46,8.216 102.978,8.23499 103.317,8.24597 L 103.317,7.93695 C 102.649,7.93695 102.54,7.93695 102.54,7.48798 L 102.54,5.65497 C 102.54,4.61896 103.247,4.06097 103.885,4.06097 C 104.512,4.06097 104.622,4.599 104.622,5.16699 L 104.622,7.48798 C 104.622,7.93695 104.512,7.93695 103.845,7.93695 L 103.845,8.24597 C 104.194,8.23499 104.702,8.216 104.971,8.216 C 105.23,8.216 105.748,8.23499 106.087,8.24597 L 106.087,7.93695 C 105.568,7.93695 105.319,7.93695 105.309,7.638 L 105.309,5.73499 C 105.309,4.87799 105.309,4.56897 105.001,4.211 C 104.861,4.04095 104.532,3.84198 103.955,3.84198 C 103.227,3.84198 102.759,4.26996 102.48,4.888 L 102.48,3.84198 L 101.075,3.95197 L 101.075,4.26001 C 101.773,4.26001 101.852,4.32996 101.852,4.81799 z M 109.597,10.636 C 109.597,10.607 109.597,10.587 109.427,10.417 C 108.182,9.16199 107.863,7.27899 107.863,5.755 C 107.863,4.021 108.242,2.28796 109.467,1.04297 C 109.597,0.922974 109.597,0.902954 109.597,0.872986 C 109.597,0.802979 109.557,0.773987 109.497,0.773987 C 109.397,0.773987 108.501,1.45099 107.913,2.716 C 107.405,3.81195 107.285,4.91797 107.285,5.755 C 107.285,6.53198 107.395,7.737 107.943,8.86298 C 108.541,10.089 109.397,10.736 109.497,10.736 C 109.557,10.736 109.597,10.706 109.597,10.636 z "
       style="fill:black;fill-rule:evenodd;stroke:none" />
    <path
       id="path2240"
       d="M 113.497,5.237 C 113.556,4.97797 113.785,4.06097 114.483,4.06097 C 114.533,4.06097 114.772,4.06097 114.981,4.19098 C 114.702,4.24097 114.503,4.48999 114.503,4.729 C 114.503,4.888 114.612,5.07697 114.881,5.07697 C 115.101,5.07697 115.419,4.89801 115.419,4.5 C 115.419,3.98096 114.832,3.84198 114.493,3.84198 C 113.915,3.84198 113.566,4.37 113.447,4.599 C 113.198,3.94196 112.66,3.84198 112.371,3.84198 C 111.335,3.84198 110.767,5.12695 110.767,5.37598 C 110.767,5.47595 110.866,5.47595 110.886,5.47595 C 110.966,5.47595 110.996,5.45599 111.016,5.36597 C 111.355,4.31 112.012,4.06097 112.351,4.06097 C 112.54,4.06097 112.889,4.151 112.889,4.729 C 112.889,5.03699 112.719,5.70496 112.351,7.09998 C 112.191,7.71698 111.843,8.13599 111.404,8.13599 C 111.345,8.13599 111.115,8.13599 110.906,8.00598 C 111.155,7.95697 111.374,7.74701 111.374,7.46796 C 111.374,7.19897 111.155,7.12 111.006,7.12 C 110.707,7.12 110.458,7.37897 110.458,7.698 C 110.458,8.15601 110.956,8.35498 111.394,8.35498 C 112.052,8.35498 112.411,7.65796 112.44,7.59796 C 112.56,7.96698 112.919,8.35498 113.516,8.35498 C 114.543,8.35498 115.11,7.07001 115.11,6.82098 C 115.11,6.72101 115.021,6.72101 114.991,6.72101 C 114.901,6.72101 114.881,6.76099 114.861,6.83099 C 114.533,7.89697 113.855,8.13599 113.536,8.13599 C 113.148,8.13599 112.988,7.81696 112.988,7.47797 C 112.988,7.25897 113.048,7.03998 113.158,6.60199 L 113.497,5.237 z "
       style="fill:black;fill-rule:evenodd;stroke:none" />
    <path
       id="path2242"
       d="M 118.741,5.755 C 118.741,4.97797 118.631,3.77197 118.083,2.64697 C 117.485,1.42096 116.629,0.773987 116.529,0.773987 C 116.469,0.773987 116.429,0.812988 116.429,0.872986 C 116.429,0.902954 116.429,0.922974 116.619,1.10199 C 117.595,2.08899 118.163,3.67297 118.163,5.755 C 118.163,7.45801 117.794,9.21198 116.559,10.467 C 116.429,10.587 116.429,10.607 116.429,10.636 C 116.429,10.696 116.469,10.736 116.529,10.736 C 116.629,10.736 117.525,10.059 118.113,8.79297 C 118.621,7.698 118.741,6.59198 118.741,5.755 z "
       style="fill:black;fill-rule:evenodd;stroke:none" />
    <path
       id="path2244"
       d="M 123.261,3.36096 L 123.024,3.36096 C 123.003,3.51495 122.933,3.92596 122.842,3.99597 C 122.787,4.03796 122.25,4.03796 122.152,4.03796 L 120.869,4.03796 C 121.601,3.38898 121.845,3.19397 122.264,2.86597 C 122.78,2.45496 123.261,2.02197 123.261,1.35999 C 123.261,0.515991 122.522,0 121.629,0 C 120.764,0 120.178,0.606995 120.178,1.24799 C 120.178,1.604 120.478,1.63898 120.548,1.63898 C 120.715,1.63898 120.918,1.51996 120.918,1.26898 C 120.918,1.14398 120.869,0.898987 120.506,0.898987 C 120.722,0.403992 121.197,0.250977 121.524,0.250977 C 122.222,0.250977 122.584,0.794983 122.584,1.35999 C 122.584,1.966 122.152,2.448 121.929,2.69897 L 120.248,4.35797 C 120.178,4.42096 120.178,4.435 120.178,4.63 L 123.052,4.63 L 123.261,3.36096 z "
       style="fill:black;fill-rule:evenodd;stroke:none" />
    <path
       id="path2246"
       d="M 130.496,5.95398 L 133.276,5.95398 C 133.415,5.95398 133.605,5.95398 133.605,5.755 C 133.605,5.55597 133.415,5.55597 133.276,5.55597 L 130.496,5.55597 L 130.496,2.76599 C 130.496,2.62695 130.496,2.43695 130.297,2.43695 C 130.098,2.43695 130.098,2.62695 130.098,2.76599 L 130.098,5.55597 L 127.308,5.55597 C 127.169,5.55597 126.979,5.55597 126.979,5.755 C 126.979,5.95398 127.169,5.95398 127.308,5.95398 L 130.098,5.95398 L 130.098,8.74396 C 130.098,8.883 130.098,9.07196 130.297,9.07196 C 130.496,9.07196 130.496,8.883 130.496,8.74396 L 130.496,5.95398 z "
       style="fill:black;fill-rule:evenodd;stroke:none" />
    <path
       id="path2248"
       d="M 139.958,4.39996 C 139.55,4.42999 139.49,4.729 139.49,4.85797 C 139.49,5.117 139.669,5.31598 139.948,5.31598 C 140.207,5.31598 140.406,5.14697 140.406,4.84796 C 140.406,4.17096 139.649,3.78198 138.882,3.78198 C 137.637,3.78198 136.72,4.85797 136.72,6.09399 C 136.72,7.36896 137.707,8.35498 138.862,8.35498 C 140.197,8.35498 140.516,7.15997 140.516,7.06 C 140.516,6.95996 140.416,6.95996 140.386,6.95996 C 140.297,6.95996 140.277,7 140.257,7.06 C 139.968,7.98596 139.32,8.10596 138.952,8.10596 C 138.424,8.10596 137.547,7.67798 137.547,6.07397 C 137.547,4.44995 138.364,4.03101 138.892,4.03101 C 138.982,4.03101 139.609,4.04095 139.958,4.39996 z M 145.499,6.11298 C 145.499,4.83795 144.503,3.78198 143.297,3.78198 C 142.052,3.78198 141.085,4.86798 141.085,6.11298 C 141.085,7.39899 142.122,8.35498 143.287,8.35498 C 144.493,8.35498 145.499,7.37897 145.499,6.11298 z M 143.297,8.10596 C 142.869,8.10596 142.43,7.89697 142.161,7.43799 C 141.912,7 141.912,6.39197 141.912,6.034 C 141.912,5.64496 141.912,5.10699 142.151,4.66901 C 142.42,4.211 142.889,4.00098 143.287,4.00098 C 143.726,4.00098 144.154,4.22101 144.413,4.64899 C 144.672,5.07697 144.672,5.65497 144.672,6.034 C 144.672,6.39197 144.672,6.92999 144.453,7.36896 C 144.234,7.81696 143.795,8.10596 143.297,8.10596 z M 147.859,6.31299 C 148.078,6.35297 148.895,6.51196 148.895,7.229 C 148.895,7.737 148.546,8.13599 147.769,8.13599 C 146.932,8.13599 146.574,7.56799 146.384,6.72101 C 146.354,6.59198 146.344,6.552 146.245,6.552 C 146.115,6.552 146.115,6.62201 146.115,6.80096 L 146.115,8.11597 C 146.115,8.28497 146.115,8.35498 146.225,8.35498 C 146.275,8.35498 146.285,8.34497 146.474,8.15601 C 146.494,8.13599 146.494,8.11597 146.673,7.927 C 147.112,8.34497 147.56,8.35498 147.769,8.35498 C 148.915,8.35498 149.373,7.68799 149.373,6.96997 C 149.373,6.44196 149.074,6.14301 148.955,6.02399 C 148.626,5.70496 148.237,5.625 147.819,5.54596 C 147.261,5.43597 146.593,5.30701 146.593,4.729 C 146.593,4.38 146.853,3.97198 147.709,3.97198 C 148.805,3.97198 148.855,4.86798 148.875,5.177 C 148.885,5.26697 148.975,5.26697 148.994,5.26697 C 149.124,5.26697 149.124,5.21698 149.124,5.02795 L 149.124,4.021 C 149.124,3.85199 149.124,3.78198 149.014,3.78198 C 148.965,3.78198 148.945,3.78198 148.815,3.90198 C 148.785,3.94196 148.686,4.03101 148.646,4.06097 C 148.267,3.78198 147.859,3.78198 147.709,3.78198 C 146.494,3.78198 146.115,4.44995 146.115,5.008 C 146.115,5.35596 146.275,5.63501 146.544,5.854 C 146.862,6.11298 147.141,6.17297 147.859,6.31299 z "
       style="fill:black;fill-rule:evenodd;stroke:none" />
    <path
       id="path2250"
       d="M 153.022,10.636 C 153.022,10.607 153.022,10.587 152.852,10.417 C 151.607,9.16199 151.288,7.27899 151.288,5.755 C 151.288,4.021 151.667,2.28796 152.892,1.04297 C 153.022,0.922974 153.022,0.902954 153.022,0.872986 C 153.022,0.802979 152.982,0.773987 152.922,0.773987 C 152.822,0.773987 151.926,1.45099 151.338,2.716 C 150.83,3.81195 150.71,4.91797 150.71,5.755 C 150.71,6.53198 150.82,7.737 151.368,8.86298 C 151.966,10.089 152.822,10.736 152.922,10.736 C 152.982,10.736 153.022,10.706 153.022,10.636 z "
       style="fill:black;fill-rule:evenodd;stroke:none" />
    <path
       id="path2252"
       d="M 156.929,5.237 C 156.989,4.97797 157.218,4.06097 157.915,4.06097 C 157.965,4.06097 158.204,4.06097 158.413,4.19098 C 158.135,4.24097 157.935,4.48999 157.935,4.729 C 157.935,4.888 158.045,5.07697 158.314,5.07697 C 158.533,5.07697 158.852,4.89801 158.852,4.5 C 158.852,3.98096 158.264,3.84198 157.925,3.84198 C 157.347,3.84198 156.999,4.37 156.879,4.599 C 156.63,3.94196 156.092,3.84198 155.803,3.84198 C 154.767,3.84198 154.199,5.12695 154.199,5.37598 C 154.199,5.47595 154.299,5.47595 154.319,5.47595 C 154.399,5.47595 154.428,5.45599 154.448,5.36597 C 154.787,4.31 155.445,4.06097 155.783,4.06097 C 155.973,4.06097 156.321,4.151 156.321,4.729 C 156.321,5.03699 156.152,5.70496 155.783,7.09998 C 155.624,7.71698 155.275,8.13599 154.837,8.13599 C 154.777,8.13599 154.548,8.13599 154.339,8.00598 C 154.588,7.95697 154.807,7.74701 154.807,7.46796 C 154.807,7.19897 154.588,7.12 154.438,7.12 C 154.139,7.12 153.89,7.37897 153.89,7.698 C 153.89,8.15601 154.389,8.35498 154.827,8.35498 C 155.484,8.35498 155.843,7.65796 155.873,7.59796 C 155.993,7.96698 156.351,8.35498 156.949,8.35498 C 157.975,8.35498 158.543,7.07001 158.543,6.82098 C 158.543,6.72101 158.453,6.72101 158.423,6.72101 C 158.334,6.72101 158.314,6.76099 158.294,6.83099 C 157.965,7.89697 157.288,8.13599 156.969,8.13599 C 156.58,8.13599 156.421,7.81696 156.421,7.47797 C 156.421,7.25897 156.481,7.03998 156.59,6.60199 L 156.929,5.237 z "
       style="fill:black;fill-rule:evenodd;stroke:none" />
    <path
       id="path2254"
       d="M 162.173,5.755 C 162.173,4.97797 162.064,3.77197 161.516,2.64697 C 160.918,1.42096 160.061,0.773987 159.962,0.773987 C 159.902,0.773987 159.862,0.812988 159.862,0.872986 C 159.862,0.902954 159.862,0.922974 160.051,1.10199 C 161.028,2.08899 161.595,3.67297 161.595,5.755 C 161.595,7.45801 161.227,9.21198 159.991,10.467 C 159.862,10.587 159.862,10.607 159.862,10.636 C 159.862,10.696 159.902,10.736 159.962,10.736 C 160.061,10.736 160.958,10.059 161.546,8.79297 C 162.054,7.698 162.173,6.59198 162.173,5.755 z "
       style="fill:black;fill-rule:evenodd;stroke:none" />
    <path
       id="path2256"
       d="M 166.686,3.36096 L 166.449,3.36096 C 166.428,3.51495 166.358,3.92596 166.267,3.99597 C 166.212,4.03796 165.675,4.03796 165.577,4.03796 L 164.294,4.03796 C 165.026,3.38898 165.27,3.19397 165.689,2.86597 C 166.205,2.45496 166.686,2.02197 166.686,1.35999 C 166.686,0.515991 165.947,0 165.054,0 C 164.189,0 163.603,0.606995 163.603,1.24799 C 163.603,1.604 163.903,1.63898 163.973,1.63898 C 164.14,1.63898 164.343,1.51996 164.343,1.26898 C 164.343,1.14398 164.294,0.898987 163.931,0.898987 C 164.147,0.403992 164.622,0.250977 164.949,0.250977 C 165.647,0.250977 166.009,0.794983 166.009,1.35999 C 166.009,1.966 165.577,2.448 165.354,2.69897 L 163.673,4.35797 C 163.603,4.42096 163.603,4.435 163.603,4.63 L 166.477,4.63 L 166.686,3.36096 z "
       style="fill:black;fill-rule:evenodd;stroke:none" />
    <path
       id="path2258"
       d="M 177.246,4.98798 C 177.395,4.98798 177.585,4.98798 177.585,4.78796 C 177.585,4.58899 177.395,4.58899 177.256,4.58899 L 171.288,4.58899 C 171.149,4.58899 170.959,4.58899 170.959,4.78796 C 170.959,4.98798 171.149,4.98798 171.298,4.98798 L 177.246,4.98798 z M 177.256,6.91998 C 177.395,6.91998 177.585,6.91998 177.585,6.72101 C 177.585,6.52197 177.395,6.52197 177.246,6.52197 L 171.298,6.52197 C 171.149,6.52197 170.959,6.52197 170.959,6.72101 C 170.959,6.91998 171.149,6.91998 171.288,6.91998 L 177.256,6.91998 z "
       style="fill:black;fill-rule:evenodd;stroke:none" />
    <path
       id="path2260"
       d="M 183.853,1.86896 C 183.853,1.63 183.853,1.60999 183.624,1.60999 C 183.006,2.24799 182.13,2.24799 181.811,2.24799 L 181.811,2.55701 C 182.01,2.55701 182.598,2.55701 183.116,2.29797 L 183.116,7.45801 C 183.116,7.81696 183.086,7.93695 182.189,7.93695 L 181.87,7.93695 L 181.87,8.24597 C 182.219,8.216 183.086,8.216 183.484,8.216 C 183.883,8.216 184.75,8.216 185.098,8.24597 L 185.098,7.93695 L 184.78,7.93695 C 183.883,7.93695 183.853,7.82697 183.853,7.45801 L 183.853,1.86896 z M 187.817,7.71698 C 187.817,7.42896 187.578,7.18896 187.289,7.18896 C 187,7.18896 186.761,7.42896 186.761,7.71698 C 186.761,8.00598 187,8.24597 187.289,8.24597 C 187.578,8.24597 187.817,8.00598 187.817,7.71698 z "
       style="fill:black;fill-rule:evenodd;stroke:none" />
  </g>
</svg>
